#!OML:ASF E:\emotionWalksFemale\Project 1\Capture day 1\Session 1\Female1.ASF
:FULLY-SPECIFIED
:DEGREES
421
root 8.26998 15.2731 35.5917 180.389 5.35273 -178.072
lowerback 7.04096 -0.156006 2.83265
upperback -4.76889 0.396404 1.69582
thorax -9.01043 0.142852 0.139853
lowerneck -8.98367 -0.354642 -2.61997
upperneck 10.7143 -0.44147 3.56908
head 4.6984 -0.0559888 1.5054
rclavicle -9.69075e-015 -3.18055e-015
rhumerus -40.6746 7.00187 -87.2218
rradius 34.733
rwrist 19.5872
rhand -2.90542 -57.2982
rfingers 7.12502
rthumb 22.8047 -445.97
lclavicle -9.69075e-015 -3.18055e-015
lhumerus -44.5216 0.811566 86.108
lradius 38.5359
lwrist -11.5744
lhand -2.39804 -33.2064
lfingers 7.12502
lthumb 23.2916 -4.59523
rfemur -7.84699 13.8362 32.7372
rtibia 20.1612
rfoot -25.1404 -32.1316
rtoes 22.0966
lfemur -3.23338 6.63902 -17.7172
ltibia 54.7608
lfoot 13.8721 -13.6034
ltoes -12.8954
422
root 8.2865 15.2697 35.5406 180.002 5.10378 -177.933
lowerback 7.49585 -0.257092 3.00374
upperback -4.68866 0.290199 1.70686
thorax -9.19383 0.0761554 0.0724133
lowerneck -8.8896 -0.277241 -2.46349
upperneck 10.5897 -0.346997 3.45925
head 4.64091 -0.0124945 1.4511
rclavicle 2.88238e-015 -1.98785e-015
rhumerus -40.5988 7.28353 -87.4821
rradius 34.0254
rwrist 17.3666
rhand -7.49851 -55.2211
rfingers 7.12502
rthumb 18.3913 -444.372
lclavicle 2.88238e-015 -1.98785e-015
lhumerus -44.5165 1.04461 85.8951
lradius 36.9474
lwrist -16.0852
lhand -11.1889 -37.4356
lfingers 7.12502
lthumb 14.8385 -7.98696
rfemur -6.91692 13.6705 33.1523
rtibia 19.83
rfoot -26.0003 -31.9346
rtoes 24.6738
lfemur -3.85587 6.54266 -17.2286
ltibia 56.4483
lfoot 14.0771 -14.109
ltoes -14.191
423
root 8.29367 15.2669 35.4858 180.271 5.39259 -177.523
lowerback 7.30008 -0.226397 3.5666
upperback -4.74503 0.412325 1.8052
thorax -9.13925 0.110701 -0.157924
lowerneck -8.77143 -0.199395 -2.37808
upperneck 10.4559 -0.239437 3.31646
head 4.57653 0.0320091 1.39889
rclavicle 6.75868e-015 -2.90226e-014
rhumerus -40.3595 7.44782 -87.5123
rradius 33.597
rwrist 16.8277
rhand -8.61322 -54.3682
rfingers 7.12502
rthumb 17.3187 -443.617
lclavicle 6.75868e-015 -2.90226e-014
lhumerus -44.2562 0.774414 86.1603
lradius 39.0133
lwrist -10.9054
lhand -4.34356 -33.9893
lfingers 7.12502
lthumb 21.424 -5.15382
rfemur -6.78446 13.1766 33.6108
rtibia 19.3921
rfoot -23.3741 -32.4131
rtoes 17.6107
lfemur -5.1445 6.7715 -16.6259
ltibia 58.1241
lfoot 14.0982 -14.0726
ltoes -11.7963
424
root 8.30001 15.253 35.4344 180.148 5.96981 -177.294
lowerback 7.51857 -0.0834284 3.96623
upperback -4.68218 0.657019 1.80263
thorax -9.1914 0.203111 -0.422112
lowerneck -8.82685 -0.115897 -2.40274
upperneck 10.4506 -0.139729 3.46459
head 4.58122 0.0894641 1.45527
rclavicle -1.43622e-014 -3.61788e-014
rhumerus -40.1492 7.43201 -87.5593
rradius 33.4992
rwrist 17.0485
rhand -8.28491 -54.5384
rfingers 7.12502
rthumb 17.6347 -443.759
lclavicle -1.43622e-014 -3.61788e-014
lhumerus -44.2812 0.601371 86.1256
lradius 37.635
lwrist -14.7016
lhand -12.0465 -37.1063
lfingers 7.12502
lthumb 14.0122 -7.59861
rfemur -6.27592 12.7616 33.9231
rtibia 18.9063
rfoot -20.9967 -32.63
rtoes 10.5299
lfemur -5.97487 7.27004 -16.1988
ltibia 59.7556
lfoot 13.6374 -14.3001
ltoes -9.18047
425
root 8.31077 15.2434 35.3796 179.824 5.78674 -177.223
lowerback 7.81148 -0.186618 4.24943
upperback -4.56474 0.544761 1.71309
thorax -9.23867 0.123073 -0.659229
lowerneck -8.92609 -0.041096 -2.3968
upperneck 10.4523 -0.0571316 3.62732
head 4.59575 0.141029 1.51029
rclavicle -7.7526e-015 -6.75868e-015
rhumerus -39.9347 7.39865 -87.7109
rradius 33.4522
rwrist 17.1169
rhand -8.04814 -54.7932
rfingers 7.12502
rthumb 17.8625 -443.993
lclavicle -7.7526e-015 -6.75868e-015
lhumerus -44.0851 0.4728 86.0285
lradius 38.1073
lwrist -13.5761
lhand -11.076 -36.8191
lfingers 7.12502
lthumb 14.9473 -7.3785
rfemur -5.41166 12.6327 34.1595
rtibia 18.3159
rfoot -20.7857 -33.0708
rtoes 9.90156
lfemur -6.71885 7.06845 -15.9137
ltibia 61.3061
lfoot 12.6693 -14.9698
ltoes -8.72834
426
root 8.32512 15.2415 35.3223 179.62 5.65961 -177.18
lowerback 7.89968 -0.283814 4.17287
upperback -4.44425 0.415894 1.85235
thorax -9.16532 0.072242 -0.448837
lowerneck -8.90251 0.0211092 -2.61723
upperneck 10.2794 0.0525265 3.62786
head 4.53503 0.18205 1.55215
rclavicle 6.16232e-015 -3.29983e-014
rhumerus -39.6577 7.69841 -87.5864
rradius 33.6149
rwrist 17.7072
rhand -6.35905 -55.8826
rfingers 7.12502
rthumb 19.4872 -444.926
lclavicle 6.16232e-015 -3.29983e-014
lhumerus -43.9291 0.901464 86.0552
lradius 37.8429
lwrist -14.8368
lhand -13.1687 -37.4682
lfingers 7.12502
lthumb 12.9306 -7.88888
rfemur -4.71801 12.4181 34.4095
rtibia 17.9257
rfoot -20.1469 -33.5996
rtoes 7.50451
lfemur -7.53572 6.81027 -15.6902
ltibia 62.7121
lfoot 11.0478 -15.5321
ltoes -8.98236
427
root 8.33369 15.2422 35.2762 179.455 5.69719 -177.253
lowerback 8.12781 -0.329363 4.16827
upperback -4.37813 0.361009 1.86581
thorax -9.2297 0.0438043 -0.423116
lowerneck -8.84737 0.0809031 -2.77204
upperneck 10.1329 0.145245 3.68366
head 4.47755 0.222072 1.5993
rclavicle -2.13694e-015 5.96354e-015
rhumerus -39.3627 7.62835 -87.36
rradius 34.0667
rwrist 20.1816
rhand -1.43739 -58.3072
rfingers 7.12502
rthumb 24.2129 -446.799
lclavicle -2.13694e-015 5.96354e-015
lhumerus -43.7436 1.10621 86.2129
lradius 40.4966
lwrist -9.45766
lhand -4.63698 -32.484
lfingers 7.12502
lthumb 21.1422 -3.61676
rfemur -4.29795 12.0742 34.4482
rtibia 17.8249
rfoot -19.9157 -33.5077
rtoes 5.51018
lfemur -8.43452 6.60944 -15.6887
ltibia 64.0243
lfoot 9.33867 -15.8928
ltoes -9.75976
